<?xml version="1.0" standalone="no"?>
<svg xmlns="http://www.w3.org/2000/svg" width="249.66135231316727" height="127.22135231316727" viewBox="0 0 249.66135231316727 127.22135231316727"><path fill="#5f67c0" fill-rule="nonzero" d="M7.80 28.68L7.80 28.68Q5.64 28.68 3.88 27.60Q2.12 26.52 1.06 24.70Q0 22.88 0 20.64L0 20.64L0 7.96Q0 5.80 1.06 3.98Q2.12 2.16 3.90 1.08Q5.68 0 7.80 0L7.80 0Q10 0 11.78 1.06Q13.56 2.12 14.60 3.92Q15.64 5.72 15.64 7.96L15.64 7.96L15.64 9.80Q15.64 9.96 15.44 9.96L15.44 9.96L10.96 9.96Q10.80 9.96 10.80 9.80L10.80 9.80L10.80 8.28Q10.80 6.76 9.94 5.76Q9.08 4.76 7.80 4.76L7.80 4.76Q6.64 4.76 5.74 5.72Q4.84 6.68 4.84 7.96L4.84 7.96L4.84 20.64Q4.84 21.96 5.72 22.90Q6.60 23.84 7.80 23.84L7.80 23.84Q9.08 23.84 9.94 22.92Q10.80 22 10.80 20.64L10.80 20.64L10.80 18.68L8 18.68Q7.80 18.68 7.80 18.48L7.80 18.48L7.80 14Q7.80 13.80 8 13.80L8 13.80L15.48 13.80Q15.64 13.80 15.64 14L15.64 14L15.64 20.64Q15.64 22.88 14.58 24.70Q13.52 26.52 11.76 27.60Q10 28.68 7.80 28.68ZM25.88 28.68L25.88 28.68Q23.72 28.68 21.94 27.58Q20.16 26.48 19.08 24.66Q18 22.84 18 20.64L18 20.64L18.04 7.96Q18.04 5.76 19.10 3.96Q20.16 2.16 21.96 1.08Q23.76 0 25.88 0L25.88 0Q28.04 0 29.80 1.08Q31.56 2.16 32.62 3.96Q33.68 5.76 33.68 7.96L33.68 7.96L33.72 20.64Q33.72 22.84 32.66 24.66Q31.60 26.48 29.82 27.58Q28.04 28.68 25.88 28.68ZM25.88 23.84L25.88 23.84Q27.08 23.84 27.98 22.86Q28.88 21.88 28.88 20.64L28.88 20.64L28.84 7.96Q28.84 6.64 28 5.72Q27.16 4.80 25.88 4.80L25.88 4.80Q24.64 4.80 23.76 5.70Q22.88 6.60 22.88 7.96L22.88 7.96L22.88 20.64Q22.88 21.96 23.76 22.90Q24.64 23.84 25.88 23.84Z" transform="translate(0 0) scale(3.187)"></path><path fill="#5f67c0" fill-rule="nonzero" d="M4.68 27.84L0.16 27.84Q0 27.84 0 27.64L0 27.64L0.08 0.16Q0.08 0 0.24 0L0.24 0L5.12 0Q5.28 0 5.40 0.16L5.40 0.16L9.04 5.44L12.68 0.16Q12.80 0 12.96 0L12.96 0L17.88 0Q18.04 0 18.04 0.16L18.04 0.16L18.12 27.64Q18.12 27.84 17.96 27.84L17.96 27.84L13.44 27.84Q13.28 27.84 13.28 27.64L13.28 27.64L13.24 7.24L9.04 13.32L4.88 7.24L4.84 27.64Q4.84 27.84 4.68 27.84L4.68 27.84ZM20.12 27.64L20.12 27.64L25.08 0.16Q25.12 0 25.28 0L25.28 0L31.08 0Q31.24 0 31.28 0.16L31.28 0.16L36.04 27.64Q36.08 27.84 35.88 27.84L35.88 27.84L31.44 27.84Q31.28 27.84 31.24 27.64L31.24 27.64L30.80 24.72L25.36 24.72L24.92 27.64Q24.88 27.84 24.72 27.84L24.72 27.84L20.28 27.84Q20.12 27.84 20.12 27.64ZM27.96 9.20L26.16 20.44L30 20.44L28.36 9.20L28.12 7.72L27.96 9.20ZM43.24 27.84L38.72 27.84Q38.56 27.84 38.56 27.64L38.56 27.64L38.64 0.16Q38.64 0 38.80 0L38.80 0L46.88 0Q49.04 0 50.86 1.06Q52.68 2.12 53.76 3.90Q54.84 5.68 54.84 7.92L54.84 7.92Q54.84 9.40 54.40 10.58Q53.96 11.76 53.36 12.58Q52.76 13.40 52.28 13.80L52.28 13.80Q54.44 16.20 54.44 19.44L54.44 19.44L54.48 27.64Q54.48 27.84 54.28 27.84L54.28 27.84L49.76 27.84Q49.60 27.84 49.60 27.72L49.60 27.72L49.60 19.44Q49.60 18 48.58 16.94Q47.56 15.88 46.08 15.88L46.08 15.88L43.44 15.88L43.40 27.64Q43.40 27.84 43.24 27.84L43.24 27.84ZM43.44 4.80L43.44 11.08L46.88 11.08Q48.12 11.08 49.08 10.16Q50.04 9.24 50.04 7.92L50.04 7.92Q50.04 6.64 49.10 5.72Q48.16 4.80 46.88 4.80L46.88 4.80L43.44 4.80ZM62.52 27.84L58 27.84Q57.84 27.84 57.84 27.64L57.84 27.64L57.92 0.20Q57.92 0 58.08 0L58.08 0L62.56 0Q62.72 0 62.72 0.20L62.72 0.20L62.72 9.68L69 0.16Q69.12 0 69.28 0L69.28 0L73.88 0Q74.04 0 73.96 0.16L73.96 0.16L67.04 11.20L74.80 27.68Q74.88 27.84 74.60 27.84L74.60 27.84L69.72 27.84Q69.52 27.84 69.48 27.68L69.48 27.68L64.08 15.92L62.68 18.12L62.68 27.64Q62.68 27.84 62.52 27.84L62.52 27.84ZM89.68 27.84L76.76 27.84Q76.60 27.84 76.60 27.64L76.60 27.64L76.64 0.16Q76.64 0 76.80 0L76.80 0L89.64 0Q89.80 0 89.80 0.20L89.80 0.20L89.80 4.68Q89.80 4.84 89.64 4.84L89.64 4.84L81.44 4.84L81.44 11.08L89.64 11.08Q89.80 11.08 89.80 11.24L89.80 11.24L89.84 15.76Q89.84 15.92 89.68 15.92L89.68 15.92L81.44 15.92L81.44 22.92L89.68 22.92Q89.84 22.92 89.84 23.12L89.84 23.12L89.84 27.68Q89.84 27.84 89.68 27.84L89.68 27.84ZM101.92 27.84L97.40 27.84Q97.24 27.84 97.24 27.64L97.24 27.64L97.24 4.84L92.04 4.84Q91.84 4.84 91.84 4.64L91.84 4.64L91.88 0.16Q91.88 0 92.04 0L92.04 0L107.24 0Q107.44 0 107.44 0.16L107.44 0.16L107.44 4.64Q107.44 4.84 107.28 4.84L107.28 4.84L102.04 4.84L102.08 27.64Q102.08 27.84 101.92 27.84L101.92 27.84Z" transform="translate(0 99.382) scale(1)"></path><g fill="#e6e600" color="#e6e600" transform="translate(122.44 0) scale(1.2722136)"><svg width="100.0" height="100.0" x="0.0" y="0.0" viewBox="0 0 100 100"><g><g><g><g><path fill-rule="evenodd" clip-rule="evenodd" d="M50.013,94.34l-3.212-5.65c-3.533-6.276-15.461-27.395-19.184-34.215      c-2.695-5.107-5.996-13.553-5.996-20.447c0-15.62,12.771-28.367,28.365-28.367c15.628,0,28.393,12.747,28.393,28.367      c0,6.604-3.063,15.496-5.93,20.525c-4.807,8.365-19.224,34.07-19.345,34.209L50.013,94.34z M50.013,12.766L50.013,12.766      c-11.709,0-21.299,9.565-21.299,21.262c0,5.185,2.626,12.31,5.184,17.038c2.943,5.414,11.277,20.3,16.089,28.757      c4.634-8.309,12.832-22.816,16.239-28.829c2.34-4.144,4.967-11.846,4.967-16.966c0-5.715-2.219-10.957-6.209-15.022      c-4.026-4.007-9.355-6.239-14.997-6.239H50.013z"></path></g></g></g><g><polygon points="59.301,35.573 51.595,35.573 51.148,40.97 57.886,40.97   "></polygon><polygon points="35.018,42.01 35.868,45.253 41.837,45.253 41.568,42.01   "></polygon><polygon points="40.953,34.532 40.662,31.009 32.135,31.009 33.058,34.532   "></polygon><polygon points="50.55,35.573 42.083,35.573 42.528,40.97 50.104,40.97   "></polygon><polygon points="33.33,35.573 34.746,40.97 41.484,40.97 41.039,35.573   "></polygon><polygon points="41.998,34.532 50.634,34.532 50.926,31.009 41.706,31.009   "></polygon><path d="M62.105,25.999c-0.133,0.072-0.265,0.166-0.387,0.29c-1.411,1.412-2.82,2.823-4.23,4.235    c-0.152,0.154-0.263,0.319-0.338,0.486h-5.183l-0.29,3.523h7.896l0.596-2.274c1.125-1.126,2.25-2.253,3.376-3.38h2.81    c2.014,0,2.014-3.122,0-3.122h-3.398C62.612,25.757,62.329,25.848,62.105,25.999"></path><polygon points="50.794,45.252 56.764,45.252 57.613,42.01 51.063,42.01   "></polygon><polygon points="49.751,45.252 50.019,42.01 42.613,42.01 42.882,45.252   "></polygon><path d="M39.021,46.249c1.52,0,2.752,1.231,2.752,2.75s-1.232,2.751-2.752,2.751s-2.753-1.231-2.753-2.751    S37.501,46.249,39.021,46.249"></path><path d="M53.61,46.249c1.521,0,2.752,1.231,2.752,2.75s-1.23,2.751-2.752,2.751c-1.518,0-2.751-1.231-2.751-2.751    S52.093,46.249,53.61,46.249"></path></g></g></svg></g></svg>