<?xml version="1.0" standalone="no"?>
<svg xmlns="http://www.w3.org/2000/svg" viewBox="0 0 104 74" width="104" height="74"><g fill="#f29b18" color="#f29b18" transform="translate(29.888 0) scale(0.9166667) "><svg width="48.0" height="48.0" x="0.0" y="0.0" viewBox="0 0 48 48"><g><path fill="currentColor" d="M47,46h-2V22.2c1.6-0.9,2.7-2.7,2.9-4.7c0.1-0.2,0.2-0.3,0.2-0.5c0-0.2,0-0.3-0.1-0.5L43,0.7   C42.8,0.3,42.4,0,42,0H6C5.5,0,5.1,0.3,5,0.7l-5,16c0,0,0,0.1,0,0.1c0,0.1,0,0.1,0,0.2c0,2.3,1.2,4.3,3,5.3V46H1c-0.6,0-1,0.4-1,1   c0,0.6,0.4,1,1,1h3h43c0.6,0,1-0.4,1-1C48,46.4,47.5,46,47,46z M6.7,2h34.6l4.4,14H2.3L6.7,2z M36.6,18c-0.4,1.7-1.8,3-3.5,3   c-1.7,0-3.1-1.3-3.5-3H36.6z M27.4,18c-0.4,1.7-1.8,3-3.5,3s-3.1-1.3-3.5-3H27.4z M18.2,18c-0.4,1.7-1.8,3-3.5,3s-3.1-1.3-3.5-3   H18.2z M2.1,18H9c-0.4,1.7-1.8,3-3.5,3S2.5,19.7,2.1,18z M17,46H5v-4.3h12V46z M29,46H19V29.7h10V46z M43,46H31v-4.3h12V46z    M43,39.7H31v-11c0-0.6-0.4-1-1-1H18c-0.6,0-1,0.4-1,1v11H5V23c0.2,0,0.4,0,0.6,0c1.9,0,3.6-1,4.6-2.6c1,1.6,2.7,2.6,4.6,2.6   c1.9,0,3.6-1,4.6-2.6c1,1.6,2.7,2.6,4.6,2.6c1.9,0,3.6-1,4.6-2.6c1,1.6,2.7,2.6,4.6,2.6c1.9,0,3.6-1,4.6-2.6c1,1.6,2.7,2.6,4.6,2.6   c0.2,0,0.5,0,0.7-0.1V39.7z M42.3,21c-1.7,0-3.1-1.3-3.5-3h6.9C45.3,19.7,43.9,21,42.3,21z"></path><path fill="currentColor" d="M8.4,37.2h5.1c0.6,0,1-0.4,1-1v-7.5c0-0.6-0.4-1-1-1H8.4c-0.6,0-1,0.4-1,1v7.5C7.4,36.7,7.9,37.2,8.4,37.2z    M9.4,29.7h3.1v5.5H9.4V29.7z"></path><path fill="currentColor" d="M34.4,37.2h5.1c0.6,0,1-0.4,1-1v-7.5c0-0.6-0.4-1-1-1h-5.1c-0.6,0-1,0.4-1,1v7.5   C33.4,36.7,33.9,37.2,34.4,37.2z M35.4,29.7h3.1v5.5h-3.1V29.7z"></path></g></svg></g><path fill="#5f67c0" fill-rule="nonzero" d="M9.96 4.01L9.96 4.01Q8.45 4.01 6.61 5.66Q4.78 7.32 3.48 9.80Q2.18 12.29 2.18 14.42L2.18 14.42Q2.18 15.29 2.74 15.90Q3.29 16.51 4.03 16.51L4.03 16.51Q5.18 16.51 6.73 15.25Q8.28 13.99 9.60 12.00L9.60 12.00Q8.26 12.36 7.61 12.36Q6.96 12.36 6.50 12.01Q6.05 11.66 6.05 11.35L6.05 11.35Q6.05 10.97 7.08 10.74Q8.11 10.51 9.67 10.51L9.67 10.51Q10.54 10.51 11.08 11.24Q11.62 11.98 11.62 12.95Q11.62 13.92 10.42 17.52Q9.22 21.12 8.60 21.12Q7.99 21.12 7.99 20.42L7.99 20.42Q7.99 19.75 8.34 18.60Q8.69 17.45 9.07 16.24Q9.46 15.02 9.70 14.26L9.70 14.26Q8.52 16.25 7.03 17.41Q5.54 18.58 4.14 18.58Q2.74 18.58 1.37 17.27Q0 15.96 0 14.40L0 14.40Q0 11.98 1.54 9.00Q3.07 6.02 5.40 3.90Q7.73 1.78 9.77 1.78L9.77 1.78Q10.44 1.78 11.09 2.58Q11.74 3.38 11.74 3.88Q11.74 4.37 11.47 4.37L11.47 4.37Q11.40 4.37 10.94 4.19Q10.49 4.01 9.96 4.01ZM21.55 10.80L21.55 10.80Q21.55 9.98 21.29 9.25Q21.02 8.52 20.52 8.18L20.52 8.18Q18.86 8.64 17.68 10.74Q16.49 12.84 16.49 14.69Q16.49 16.54 17.40 16.99L17.40 16.99Q19.13 16.66 20.34 14.63Q21.55 12.60 21.55 10.80ZM15.25 11.02Q16.08 9.14 17.44 7.93Q18.79 6.72 20.22 6.72Q21.65 6.72 22.61 7.93Q23.57 9.14 23.57 10.88Q23.57 12.62 22.73 14.44Q21.89 16.25 20.41 17.44Q18.94 18.62 17.28 18.62L17.28 18.62Q16.06 18.62 15.24 17.50Q14.42 16.37 14.42 14.63Q14.42 12.89 15.25 11.02ZM38.50 2.47Q38.50 2.06 38.60 1.91Q38.71 1.75 39.01 1.75Q39.31 1.75 40.06 2.40Q40.80 3.05 40.85 3.55L40.85 3.55Q40.94 4.42 41.76 6.61Q42.58 8.81 43.63 11.06L43.63 11.06Q44.98 9.48 47.02 6.85Q49.06 4.22 50.04 3.12Q51.02 2.02 51.46 2.02Q51.89 2.02 52.37 2.50Q52.85 2.98 52.85 3.41Q52.85 3.84 52.75 4.39Q52.66 4.94 52.43 5.84Q52.20 6.74 52.02 7.40Q51.84 8.06 51.43 9.46Q51.02 10.85 50.81 11.68Q50.59 12.50 50.30 13.69Q50.02 14.88 49.84 15.64Q49.66 16.39 49.46 17.11L49.46 17.11Q49.10 18.50 48.78 18.50Q48.46 18.50 48.14 17.93Q47.83 17.35 47.83 16.38Q47.83 15.41 48.66 11.93Q49.49 8.45 50.45 5.83L50.45 5.83Q46.03 11.35 45.01 12.43Q43.99 13.51 43.33 13.51Q42.67 13.51 42.10 12.77L42.10 12.77Q41.23 11.52 39.77 6.86L39.77 6.86Q39.36 9.38 38.87 11.17Q38.38 12.96 38.22 13.55Q38.06 14.14 37.96 14.52Q37.85 14.90 37.70 15.42Q37.56 15.94 37.45 16.27Q37.34 16.61 37.22 17.00Q37.10 17.40 37.02 17.64Q36.94 17.88 36.84 18.10L36.84 18.10Q36.65 18.50 36.55 18.50L36.55 18.50Q36.26 18.50 35.83 17.88Q35.40 17.26 35.40 16.68Q35.40 16.10 36.95 10.06Q38.50 4.01 38.50 2.47L38.50 2.47ZM60.12 6.72Q61.20 6.72 62.11 7.81Q63.02 8.90 63.02 9.78Q63.02 10.66 62.42 11.57L62.42 11.57Q62.71 11.93 62.71 12.19L62.71 12.19Q62.71 12.86 62.41 14.50Q62.11 16.13 62.05 16.63Q61.99 17.14 61.94 17.44Q61.90 17.74 61.82 18.02L61.82 18.02Q61.73 18.62 61.39 18.62L61.39 18.62Q60.96 18.62 60.68 17.87Q60.41 17.11 60.36 15.91L60.36 15.91Q58.22 18.62 56.40 18.62L56.40 18.62Q55.30 18.62 54.23 17.68Q53.16 16.73 53.16 15.72L53.16 15.72Q53.16 14.28 54.22 12.16Q55.27 10.03 56.95 8.38Q58.63 6.72 60.12 6.72L60.12 6.72ZM61.22 10.97L61.22 10.94Q61.22 8.71 60.34 8.71L60.34 8.71Q59.40 8.71 58.15 10.04Q56.90 11.38 56.04 13.06Q55.18 14.74 55.18 15.72L55.18 15.72Q55.18 16.13 55.51 16.38Q55.85 16.63 56.30 16.63L56.30 16.63Q57.43 16.63 58.85 15.11Q60.26 13.58 60.82 11.40L60.82 11.40Q60.89 11.04 61.22 10.97L61.22 10.97ZM66.43 9.65L66.43 9.65L66.36 7.85Q66.36 6.72 66.89 6.72L66.89 6.72Q67.34 6.72 67.76 7.31Q68.18 7.90 68.18 8.70Q68.18 9.50 68.14 9.91L68.14 9.91Q70.22 6.74 72.10 6.74L72.10 6.74Q73.27 6.74 73.27 7.32L73.27 7.32Q73.27 7.61 73.01 7.85Q72.74 8.09 72.17 8.40L72.17 8.40Q70.90 8.95 70.02 10.09Q69.14 11.23 68.59 12.67Q68.04 14.11 67.72 15.10Q67.39 16.08 67.22 16.63Q67.06 17.18 66.84 17.71L66.84 17.71Q66.46 18.67 65.95 18.67L65.95 18.67Q65.54 18.67 65.29 18.20Q65.04 17.74 65.04 17.29Q65.04 16.85 65.45 15.53L65.45 15.53Q66.43 12.50 66.43 9.65ZM83.54 8.02L83.54 8.02Q83.54 8.23 81.41 10.27L81.41 10.27Q80.62 11.04 79.96 12.08Q79.30 13.13 79.30 13.99Q79.30 14.86 79.81 15.59Q80.33 16.32 80.94 16.69Q81.55 17.06 82.07 17.42Q82.58 17.78 82.58 18.02L82.58 18.02Q82.58 18.62 81.64 18.62Q80.69 18.62 79.38 17.56Q78.07 16.49 77.76 15.17L77.76 15.17Q77.64 14.93 77.57 14.71L77.57 14.71Q75.94 16.92 75.20 17.77Q74.47 18.62 74.11 18.62Q73.75 18.62 73.32 18.06Q72.89 17.50 72.89 17.12Q72.89 16.75 73.67 14.03Q74.45 11.30 75.23 7.49Q76.01 3.67 76.01 0.67L76.01 0.67Q76.01 0.29 76.12 0.14Q76.22 0 76.58 0Q76.94 0 77.47 0.71Q78 1.42 78 2.09L78 2.09Q78 4.22 77.14 8.06Q76.27 11.90 75.07 15.36L75.07 15.36Q77.78 11.50 79.76 9.11Q81.74 6.72 82.21 6.72Q82.68 6.72 83.11 7.18Q83.54 7.63 83.54 8.02ZM93.77 10.69Q93.77 11.98 92.39 12.78Q91.01 13.58 89.27 13.58Q87.53 13.58 86.11 13.20L86.11 13.20Q85.78 14.26 85.78 15.08Q85.78 15.91 86.29 16.37Q86.81 16.82 88.00 16.82Q89.18 16.82 90.44 16.40Q91.70 15.98 91.82 15.98L91.82 15.98Q92.45 15.98 92.45 16.46L92.45 16.46Q92.45 17.11 90.98 17.87Q89.52 18.62 88.13 18.62L88.13 18.62Q86.26 18.62 85.08 17.51Q83.90 16.39 83.90 14.69Q83.90 12.98 84.82 11.12Q85.73 9.26 87.17 7.99Q88.61 6.72 90.02 6.72Q91.44 6.72 92.60 8.06Q93.77 9.41 93.77 10.69ZM90.14 8.62L90.14 8.62Q89.26 8.62 88.30 9.54Q87.34 10.46 86.66 11.83L86.66 11.83Q87.62 12.05 88.85 12.05Q90.07 12.05 90.98 11.65Q91.90 11.26 91.90 10.61Q91.90 9.96 91.31 9.29Q90.72 8.62 90.14 8.62ZM97.68 16.22L97.68 16.22Q97.68 16.68 98.21 16.68L98.21 16.68Q99.12 16.68 100.43 16.16Q101.74 15.65 101.88 15.65L101.88 15.65Q102.31 15.65 102.31 16.10L102.31 16.10Q102.31 16.80 100.88 17.71Q99.46 18.62 98.29 18.62Q97.13 18.62 96.36 17.99Q95.59 17.35 95.59 16.68Q95.59 16.01 95.88 14.96Q96.17 13.92 96.71 12.20Q97.25 10.49 97.56 9.36L97.56 9.36Q96.43 9.62 96.05 9.62Q95.66 9.62 95.29 9.23Q94.92 8.83 94.92 8.47L94.92 8.47Q94.92 7.90 98.04 7.37L98.04 7.37Q98.47 5.38 98.47 3.84L98.47 3.84Q98.47 3.12 98.95 3.12L98.95 3.12Q99.36 3.12 99.96 3.64Q100.56 4.15 100.56 4.80Q100.56 5.45 100.15 7.08L100.15 7.08Q101.52 6.96 102.34 6.96L102.34 6.96Q103.78 6.96 103.78 7.58L103.78 7.58Q103.78 7.94 103.00 8.18Q102.22 8.42 99.72 8.93L99.72 8.93Q99.22 10.82 98.45 13.26Q97.68 15.70 97.68 16.22Z" transform="translate(0, 52)"></path></svg>